<svg width="50" height="50" viewBox="0 0 50 50" fill="none" xmlns="http://www.w3.org/2000/svg">
<rect width="50" height="50" rx="25" fill="#2490FF"/>
<path d="M25 10C24.2333 10 23.45 10.0667 22.6667 10.2333C18.0667 11.1167 14.4 14.8333 13.5333 19.4333C12.7333 23.7833 14.3333 27.7833 17.2333 30.3667C17.95 31 18.3333 31.8833 18.3333 32.8167V36.6667C18.3333 38.5 19.8333 40 21.6667 40H22.1333C22.7167 41 23.7667 41.6667 25 41.6667C26.2333 41.6667 27.3 41 27.8667 40H28.3333C30.1667 40 31.6667 38.5 31.6667 36.6667V32.8167C31.6667 31.9 32.0333 31 32.7333 30.3833C35.15 28.25 36.6667 25.1333 36.6667 21.6667C36.6667 15.2167 31.45 10 25 10ZM28.3333 36.6667H21.6667V35H28.3333V36.6667ZM28.3333 33.3333H21.6667V31.6667H28.3333V33.3333ZM25.8333 24.0167V28.3333H24.1667V24.0167L21.1167 20.9833L22.3 19.8L25 22.5L27.7 19.8L28.8833 20.9833L25.8333 24.0167Z" fill="white"/>
</svg>
